<svg xmlns="http://www.w3.org/2000/svg" width="584" height="880"><style>line, path, circle, rect, polygon{stroke:black;stroke-width:2;stroke-opacity:1;fill-opacity:1;stroke-linecap:round;stroke-linejoin:miter;}text{font-family:Iosevka Fixed, monospace;font-size:14px;}rect.backdrop{stroke:none;fill:white;}.broken{stroke-dasharray:8;}.filled{fill:black;}.bg_filled{fill:white;}.nofill{fill:white;}.end_marked_arrow{marker-end:url(#arrow);}.start_marked_arrow{marker-start:url(#arrow);}.end_marked_diamond{marker-end:url(#diamond);}.start_marked_diamond{marker-start:url(#diamond);}.end_marked_circle{marker-end:url(#circle);}.start_marked_circle{marker-start:url(#circle);}.end_marked_open_circle{marker-end:url(#open_circle);}.start_marked_open_circle{marker-start:url(#open_circle);}.end_marked_big_open_circle{marker-end:url(#big_open_circle);}.start_marked_big_open_circle{marker-start:url(#big_open_circle);}<!--separator--></style><defs><marker id="arrow" viewBox="-2 -2 8 8" refX="4" refY="2" markerWidth="7" markerHeight="7" orient="auto-start-reverse"><polygon points="0,0 0,4 4,2 0,0"></polygon></marker><marker id="diamond" viewBox="-2 -2 8 8" refX="4" refY="2" markerWidth="7" markerHeight="7" orient="auto-start-reverse"><polygon points="0,2 2,0 4,2 2,4 0,2"></polygon></marker><marker id="circle" viewBox="0 0 8 8" refX="4" refY="4" markerWidth="7" markerHeight="7" orient="auto-start-reverse"><circle cx="4" cy="4" r="2" class="filled"></circle></marker><marker id="open_circle" viewBox="0 0 8 8" refX="4" refY="4" markerWidth="7" markerHeight="7" orient="auto-start-reverse"><circle cx="4" cy="4" r="2" class="bg_filled"></circle></marker><marker id="big_open_circle" viewBox="0 0 8 8" refX="4" refY="4" markerWidth="7" markerHeight="7" orient="auto-start-reverse"><circle cx="4" cy="4" r="3" class="bg_filled"></circle></marker></defs><rect class="backdrop" x="0" y="0" width="584" height="880"></rect><text x="18" y="428" >Compiled</text><text x="90" y="428" >Linux</text><text x="138" y="428" >Kernel</text><text x="34" y="476" >Modules</text><line x1="204" y1="480" x2="204" y2="528" class="solid"></line><line x1="380" y1="496" x2="380" y2="512" class="solid"></line><text x="362" y="524" >'vm'</text><text x="34" y="540" >bzImage</text><line x1="24" y1="662" x2="176" y2="662" class="solid"></line><line x1="24" y1="666" x2="176" y2="666" class="solid"></line><line x1="28" y1="672" x2="28" y2="688" class="solid"></line><text x="42" y="684" >Virtual</text><text x="106" y="684" >network</text><circle cx="172" cy="680" r="4" class="nofill"></circle><line x1="24" y1="694" x2="96" y2="694" class="solid"></line><line x1="24" y1="698" x2="96" y2="698" class="solid"></line><line x1="104" y1="694" x2="176" y2="694" class="solid"></line><line x1="104" y1="698" x2="176" y2="698" class="solid"></line><circle cx="276" cy="744" r="3" class="nofill"></circle><circle cx="284" cy="744" r="4" class="nofill"></circle><text x="298" y="44" >Rapido</text><text x="354" y="44" >'cut'</text><text x="402" y="44" >script</text><text x="314" y="108" >File</text><text x="354" y="108" >manifest:</text><text x="386" y="124" >modules</text><text x="370" y="140" >space</text><text x="418" y="140" >files</text><text x="18" y="156" >Userspace</text><text x="18" y="172" >E.g.</text><text x="74" y="204" >conf</text><text x="98" y="156" >dependencies</text><text x="114" y="188" >blktests</text><text x="114" y="204" >+</text><text x="130" y="204" >binaries</text><text x="322" y="236" >Dracut</text><text x="378" y="236" >initramfs</text><text x="322" y="252" >generator</text><text x="546" y="236" >r</text><text x="546" y="252" >a</text><text x="546" y="268" >p</text><text x="546" y="284" >i</text><text x="546" y="300" >d</text><text x="546" y="316" >o</text><text x="546" y="332" >.</text><text x="546" y="348" >c</text><text x="546" y="364" >o</text><text x="546" y="380" >n</text><text x="546" y="396" >f</text><text x="18" y="332" >Rapido</text><text x="74" y="332" >'autorun'</text><text x="154" y="332" >script</text><text x="314" y="380" >Initramfs</text><text x="402" y="396" >all</text><text x="330" y="412" >kernel</text><text x="386" y="412" >and</text><text x="418" y="412" >user</text><text x="330" y="428" >dependencies</text><line x1="552" y1="416" x2="544" y2="432" class="solid"></line><text x="546" y="460" >n</text><text x="546" y="476" >e</text><text x="546" y="492" >t</text><text x="306" y="524" >Rapido</text><text x="402" y="524" >script</text><text x="546" y="524" >c</text><text x="546" y="540" >o</text><text x="546" y="556" >n</text><text x="546" y="572" >f</text><text x="322" y="588" >QEMU</text><line x1="368" y1="576" x2="360" y2="592" class="solid"></line><text x="378" y="588" >KVM</text><text x="298" y="716" >Virtual</text><text x="362" y="716" >Machine</text><text x="378" y="732" >redirected</text><text x="314" y="748" >stdin</text><text x="362" y="748" >and</text><text x="394" y="748" >stdout</text><text x="314" y="764" >'autorun'</text><text x="394" y="764" >script</text><text x="314" y="780" >executed</text><text x="386" y="780" >on</text><text x="410" y="780" >boot</text><text x="466" y="732" >via</text><text x="298" y="764" >•</text><text x="18" y="796" >Rapido</text><text x="74" y="796" >setup-network</text><g><line x1="284" y1="8" x2="484" y2="8" class="solid"></line><line x1="284" y1="8" x2="284" y2="224" class="solid"></line><line x1="484" y1="8" x2="484" y2="176" class="solid"></line></g><g><line x1="300" y1="72" x2="468" y2="72" class="solid"></line><line x1="300" y1="72" x2="300" y2="168" class="solid"></line><line x1="468" y1="72" x2="468" y2="168" class="solid"></line><line x1="300" y1="168" x2="468" y2="168" class="solid"></line><line x1="380" y1="168" x2="380" y2="196" class="solid"></line><polygon points="376,196 384,196 380,208" class="filled"></polygon></g><g><line x1="524" y1="72" x2="572" y2="72" class="solid"></line><line x1="524" y1="72" x2="524" y2="632" class="solid"></line><line x1="572" y1="72" x2="572" y2="632" class="solid"></line><line x1="524" y1="632" x2="572" y2="632" class="solid"></line><line x1="548" y1="632" x2="548" y2="676" class="solid"></line><polygon points="544,676 552,676 548,688" class="filled"></polygon><line x1="548" y1="688" x2="548" y2="788" class="solid"></line><polygon points="544,788 552,788 548,800" class="filled"></polygon><line x1="548" y1="800" x2="548" y2="856" class="solid"></line><polygon points="488,180 480,184 488,188" class="filled"></polygon><line x1="488" y1="184" x2="524" y2="184" class="solid"></line><polygon points="488,564 480,568 488,572" class="filled"></polygon><line x1="488" y1="568" x2="524" y2="568" class="solid"></line><polygon points="512,740 504,744 512,748" class="filled"></polygon><line x1="512" y1="744" x2="548" y2="744" class="solid"></line><polygon points="96,828 100,816 104,828" class="filled"></polygon><line x1="100" y1="828" x2="100" y2="856" class="solid"></line><line x1="100" y1="856" x2="344" y2="856" class="solid"></line><polygon points="352,852 344,856 352,860" class="filled"></polygon><line x1="352" y1="856" x2="548" y2="856" class="solid"></line></g><g><line x1="4" y1="120" x2="204" y2="120" class="solid"></line><line x1="4" y1="120" x2="4" y2="264" class="solid"></line><line x1="204" y1="120" x2="204" y2="264" class="solid"></line><line x1="204" y1="232" x2="232" y2="232" class="solid"></line><polygon points="232,228 240,232 232,236" class="filled"></polygon><line x1="240" y1="232" x2="296" y2="232" class="solid"></line><line x1="260" y1="232" x2="260" y2="256" class="solid"></line><polygon points="296,228 304,232 296,236" class="filled"></polygon><line x1="4" y1="264" x2="204" y2="264" class="solid"></line><polygon points="256,268 260,256 264,268" class="filled"></polygon><line x1="260" y1="268" x2="260" y2="384" class="solid"></line><polygon points="256,396 260,384 264,396" class="filled"></polygon><line x1="260" y1="396" x2="260" y2="472" class="solid"></line><line x1="4" y1="296" x2="212" y2="296" class="solid"></line><line x1="4" y1="296" x2="4" y2="360" class="solid"></line><line x1="212" y1="296" x2="212" y2="360" class="solid"></line><line x1="212" y1="328" x2="232" y2="328" class="solid"></line><polygon points="232,324 240,328 232,332" class="filled"></polygon><line x1="240" y1="328" x2="260" y2="328" class="solid"></line><line x1="4" y1="360" x2="212" y2="360" class="solid"></line><line x1="20" y1="456" x2="100" y2="456" class="solid"></line><line x1="20" y1="456" x2="20" y2="488" class="solid"></line><line x1="100" y1="456" x2="100" y2="488" class="solid"></line><line x1="100" y1="472" x2="232" y2="472" class="solid"></line><polygon points="232,468 240,472 232,476" class="filled"></polygon><line x1="240" y1="472" x2="260" y2="472" class="solid"></line><line x1="20" y1="488" x2="100" y2="488" class="solid"></line></g><g><line x1="300" y1="200" x2="376" y2="200" class="solid"></line><line x1="300" y1="200" x2="300" y2="224" class="solid"></line></g><g><line x1="384" y1="200" x2="468" y2="200" class="solid"></line><line x1="468" y1="200" x2="468" y2="280" class="solid"></line><line x1="300" y1="240" x2="300" y2="280" class="solid"></line><line x1="300" y1="280" x2="468" y2="280" class="solid"></line><line x1="380" y1="280" x2="380" y2="304" class="solid"></line></g><g><line x1="484" y1="192" x2="484" y2="312" class="solid"></line><line x1="284" y1="240" x2="284" y2="312" class="solid"></line><line x1="284" y1="312" x2="484" y2="312" class="solid"></line></g><g><line x1="380" y1="320" x2="380" y2="340" class="solid"></line><polygon points="376,340 384,340 380,352" class="filled"></polygon></g><g><line x1="300" y1="344" x2="376" y2="344" class="solid"></line><line x1="300" y1="344" x2="300" y2="456" class="solid"></line><line x1="384" y1="344" x2="468" y2="344" class="solid"></line><line x1="468" y1="344" x2="468" y2="456" class="solid"></line><line x1="300" y1="456" x2="468" y2="456" class="solid"></line><line x1="380" y1="456" x2="380" y2="480" class="solid"></line></g><g><line x1="4" y1="408" x2="204" y2="408" class="solid"></line><line x1="4" y1="408" x2="4" y2="584" class="solid"></line><line x1="204" y1="408" x2="204" y2="464" class="solid"></line><line x1="204" y1="544" x2="204" y2="584" class="solid"></line><line x1="4" y1="584" x2="204" y2="584" class="solid"></line></g><g><line x1="284" y1="488" x2="484" y2="488" class="solid"></line><line x1="284" y1="488" x2="284" y2="576" class="solid"></line><line x1="484" y1="488" x2="484" y2="560" class="solid"></line></g><g><line x1="20" y1="520" x2="100" y2="520" class="solid"></line><line x1="20" y1="520" x2="20" y2="552" class="solid"></line><line x1="100" y1="520" x2="100" y2="552" class="solid"></line><line x1="100" y1="536" x2="232" y2="536" class="solid"></line><polygon points="232,532 240,536 232,540" class="filled"></polygon><line x1="240" y1="536" x2="260" y2="536" class="solid"></line><line x1="260" y1="536" x2="260" y2="584" class="solid"></line><line x1="20" y1="552" x2="100" y2="552" class="solid"></line><line x1="260" y1="584" x2="304" y2="584" class="solid"></line><polygon points="304,580 312,584 304,588" class="filled"></polygon></g><g><line x1="380" y1="528" x2="380" y2="548" class="solid"></line><polygon points="376,548 384,548 380,560" class="filled"></polygon></g><g><line x1="308" y1="552" x2="376" y2="552" class="solid"></line><line x1="308" y1="552" x2="308" y2="576" class="solid"></line></g><g><line x1="384" y1="552" x2="420" y2="552" class="solid"></line><line x1="420" y1="552" x2="420" y2="616" class="solid"></line><line x1="308" y1="592" x2="308" y2="616" class="solid"></line><line x1="308" y1="616" x2="420" y2="616" class="solid"></line><line x1="380" y1="616" x2="380" y2="640" class="solid"></line></g><g><line x1="484" y1="576" x2="484" y2="648" class="solid"></line><line x1="284" y1="592" x2="284" y2="648" class="solid"></line><line x1="284" y1="648" x2="484" y2="648" class="solid"></line></g><g><line x1="380" y1="656" x2="380" y2="676" class="solid"></line><polygon points="376,676 384,676 380,688" class="filled"></polygon></g><g><line x1="176" y1="680" x2="244" y2="680" class="solid"></line><line x1="244" y1="680" x2="244" y2="744" class="solid"></line><line x1="244" y1="744" x2="272" y2="744" class="solid"></line></g><g><line x1="284" y1="680" x2="376" y2="680" class="solid"></line><line x1="284" y1="680" x2="284" y2="740" class="solid"></line><line x1="276" y1="696" x2="284" y2="696" class="solid"></line><line x1="276" y1="696" x2="276" y2="740" class="broken"></line></g><g><line x1="384" y1="680" x2="508" y2="680" class="solid"></line><line x1="508" y1="680" x2="508" y2="736" class="solid"></line></g><g><polygon points="96,700 100,688 104,700" class="filled"></polygon><line x1="100" y1="700" x2="100" y2="760" class="solid"></line><line x1="4" y1="760" x2="204" y2="760" class="solid"></line><line x1="4" y1="760" x2="4" y2="824" class="solid"></line><line x1="204" y1="760" x2="204" y2="824" class="solid"></line><line x1="4" y1="824" x2="96" y2="824" class="solid"></line><line x1="104" y1="824" x2="204" y2="824" class="solid"></line></g><g><line x1="276" y1="748" x2="276" y2="824" class="broken"></line><line x1="508" y1="752" x2="508" y2="808" class="solid"></line><line x1="284" y1="808" x2="508" y2="808" class="solid"></line><line x1="500" y1="808" x2="500" y2="824" class="solid"></line><line x1="276" y1="824" x2="500" y2="824" class="broken"></line><line x1="284" y1="748" x2="284" y2="808" class="solid"></line></g><g><text x="314" y="124">•</text><text x="330" y="124">Kernel</text></g><g><text x="314" y="140">•</text><text x="330" y="140">User</text></g><g><text x="18" y="188">•</text><text x="34" y="188">xfstests,</text></g><g><text x="18" y="204">•</text><text x="34" y="204">Ceph</text></g><g><text x="18" y="220">•</text><text x="34" y="220">Samba</text></g><g><text x="18" y="236">•</text><text x="34" y="236">etc.</text></g><g><text x="314" y="396">•</text><text x="330" y="396">Includes</text></g><g><text x="298" y="732">•</text><text x="314" y="732">Console</text></g></svg>